<svg width="41" height="40" viewBox="0 0 41 40" fill="none" xmlns="http://www.w3.org/2000/svg">
<g clip-path="url(#clip0_2289_24437)">
<path d="M24.8297 25.5004C24.7607 24.8797 24.5538 24.4314 24.14 24.0176C23.3642 23.2073 22.0021 22.6729 20.3987 22.6729C18.7953 22.6729 17.4332 23.1901 16.6574 24.0176C16.2608 24.4487 16.0367 24.8797 15.9677 25.5004C15.8298 26.7073 15.916 27.7417 16.0539 29.4142C16.1918 31.0003 16.4505 33.121 16.778 35.2589C17.0194 36.7934 17.209 37.621 17.3815 38.2072C17.6746 39.1727 18.7263 40.0002 20.3987 40.0002C22.0711 40.0002 23.1401 39.1554 23.4159 38.2072C23.5883 37.621 23.7779 36.7934 24.0193 35.2589C24.3469 33.1038 24.6056 31.0003 24.7435 29.4142C24.8986 27.7417 24.9676 26.7073 24.8297 25.5004Z" fill="url(#paint0_linear_2289_24437)"/>
<path d="M24.6375 16.7071C24.6375 19.0519 22.7409 20.9484 20.3961 20.9484C18.0513 20.9484 16.1548 19.0519 16.1548 16.7071C16.1548 14.3623 18.0513 12.4658 20.3961 12.4658C22.7409 12.4658 24.6375 14.3795 24.6375 16.7071Z" fill="url(#paint1_linear_2289_24437)"/>
<path d="M20.3468 2.72792e-05C10.4503 0.0344632 2.34696 8.06886 2.20906 17.9654C2.1056 25.9825 7.22618 32.8445 14.3813 35.3618C14.5538 35.4307 14.7262 35.2755 14.7089 35.1031C14.6227 34.4824 14.5192 33.8617 14.4503 33.241C14.4158 33.0169 14.2779 32.8445 14.0882 32.7411C8.43306 30.2755 4.48485 24.6032 4.5538 18.0343C4.64 9.41372 11.6744 2.39653 20.2778 2.32758C29.088 2.25864 36.2776 9.39646 36.2776 18.1895C36.2776 24.6894 32.3467 30.2755 26.7433 32.7411C26.5364 32.8273 26.3984 33.0169 26.3812 33.241C26.295 33.8617 26.2088 34.4824 26.1226 35.1031C26.0881 35.2927 26.2777 35.4307 26.4502 35.3618C33.5363 32.879 38.6224 26.1204 38.6224 18.1895C38.5879 8.15507 30.3984 -0.0172294 20.3468 2.72792e-05Z" fill="url(#paint2_linear_2289_24437)"/>
<path d="M19.9306 6.03424C13.4824 6.2756 8.31003 11.6032 8.22382 18.0514C8.17213 22.2927 10.2928 26.0513 13.5513 28.2754C13.7065 28.3788 13.9307 28.2582 13.9307 28.0685C13.8789 27.3272 13.8789 26.672 13.9134 25.9823C13.9307 25.7582 13.8445 25.5513 13.672 25.3961C11.6893 23.534 10.4824 20.8789 10.5514 17.9479C10.6893 12.7756 14.8444 8.56872 20.0168 8.3618C25.6374 8.13769 30.2581 12.6548 30.2581 18.2065C30.2581 21.0341 29.0512 23.5858 27.1374 25.3961C26.9823 25.5513 26.8961 25.7582 26.8961 25.9823C26.9305 26.6547 26.9133 27.3099 26.8788 28.0512C26.8615 28.2409 27.0857 28.3788 27.2581 28.2582C30.4649 26.0685 32.5856 22.3617 32.5856 18.1893C32.6029 11.3273 26.8615 5.75837 19.9306 6.03424Z" fill="url(#paint3_linear_2289_24437)"/>
</g>
<defs>
<linearGradient id="paint0_linear_2289_24437" x1="20.4009" y1="22.6729" x2="20.4009" y2="40.0002" gradientUnits="userSpaceOnUse">
<stop stop-color="#F452FF"/>
<stop offset="1" stop-color="#832BC1"/>
</linearGradient>
<linearGradient id="paint1_linear_2289_24437" x1="20.3961" y1="12.4658" x2="20.3961" y2="20.9484" gradientUnits="userSpaceOnUse">
<stop stop-color="#F452FF"/>
<stop offset="1" stop-color="#832BC1"/>
</linearGradient>
<linearGradient id="paint2_linear_2289_24437" x1="20.415" y1="2.72792e-05" x2="20.415" y2="35.3798" gradientUnits="userSpaceOnUse">
<stop stop-color="#F452FF"/>
<stop offset="1" stop-color="#832BC1"/>
</linearGradient>
<linearGradient id="paint3_linear_2289_24437" x1="20.4043" y1="6.02441" x2="20.4043" y2="28.3133" gradientUnits="userSpaceOnUse">
<stop stop-color="#F452FF"/>
<stop offset="1" stop-color="#832BC1"/>
</linearGradient>
<clipPath id="clip0_2289_24437">
<rect width="40" height="40" fill="white" transform="translate(0.20752)"/>
</clipPath>
</defs>
</svg>
