<svg width="40" height="40" viewBox="0 0 40 40" fill="none" xmlns="http://www.w3.org/2000/svg">
<path d="M20.0001 38.182C30.0416 38.182 38.1819 30.0417 38.1819 20.0002C38.1819 9.95864 30.0416 1.81836 20.0001 1.81836C9.95851 1.81836 1.81824 9.95864 1.81824 20.0002C1.81824 30.0417 9.95851 38.182 20.0001 38.182Z" stroke="#FC7E0F" stroke-width="2.38961" stroke-linecap="round"/>
<path d="M10.1299 12.3223C10.1299 12.3223 7.6156 15.1586 7.6156 20.1145C7.6156 25.0703 10.1299 27.7924 10.1299 27.7924" stroke="#FC7E0F" stroke-width="2.38961" stroke-linecap="round"/>
<path d="M30.161 12.3223C30.161 12.3223 32.6753 15.1586 32.6753 20.1145C32.6753 25.0703 30.161 27.7924 30.161 27.7924" stroke="#FC7E0F" stroke-width="2.38961" stroke-linecap="round"/>
<path d="M26.1506 15.6367C26.1506 15.6367 27.8441 17.7458 27.8026 20.1043C27.7506 22.9406 26.1714 24.4991 26.1714 24.4991" stroke="#FC7E0F" stroke-width="2.38961" stroke-linecap="round"/>
<path d="M14.0571 15.6367C14.0571 15.6367 12.3636 17.7458 12.4052 20.1043C12.4571 22.9406 14.0363 24.4991 14.0363 24.4991" stroke="#FC7E0F" stroke-width="2.38961" stroke-linecap="round"/>
<path d="M20 23.3251C21.8361 23.3251 23.3246 21.8366 23.3246 20.0005C23.3246 18.1643 21.8361 16.6758 20 16.6758C18.1638 16.6758 16.6753 18.1643 16.6753 20.0005C16.6753 21.8366 18.1638 23.3251 20 23.3251Z" fill="#FC7E0F"/>
<path d="M20.561 23.1064L18.2025 22.4727L14.2753 37.1428L16.6337 37.7766L20.561 23.1064Z" fill="#FC7E0F"/>
<path d="M19.6467 23.0863L21.9948 22.4629L25.9013 37.1434L23.5532 37.7668L19.6467 23.0863Z" fill="#FC7E0F"/>
<path d="M17.4648 31.0029L18.3376 30.1094L24.3843 36.0003L23.5116 36.8938L17.4648 31.0029Z" fill="#FC7E0F"/>
<path d="M22.5869 31.0344L21.7973 30.2344L15.8025 36.1876L16.5921 36.9876L22.5869 31.0344Z" fill="#FC7E0F"/>
</svg>
