<svg width="40" height="40" viewBox="0 0 40 40" fill="none" xmlns="http://www.w3.org/2000/svg">
<g clip-path="url(#clip0_2289_24441)">
<path fill-rule="evenodd" clip-rule="evenodd" d="M20 40C31.0459 40 40 31.0459 40 20C40 8.95408 31.0459 0 20 0C8.95408 0 0 8.95408 0 20C0 31.0459 8.95408 40 20 40ZM20 4.44445C11.4089 4.44445 4.44445 11.4089 4.44445 20C4.44445 28.5911 11.4089 35.5555 20 35.5555V31.6666C13.5566 31.6666 8.33334 26.4434 8.33334 20C8.33334 13.5566 13.5566 8.33334 20 8.33334C26.4434 8.33334 31.6666 13.5566 31.6666 20H35.5555C35.5555 11.4089 28.5911 4.44445 20 4.44445ZM10.6667 20C10.6667 25.1546 14.8454 29.3334 20 29.3334V25.9394C16.7197 25.9394 14.0606 23.2803 14.0606 20C14.0606 16.7197 16.7197 14.0606 20 14.0606C23.2803 14.0606 25.9394 16.7197 25.9394 20H29.3334C29.3334 14.8454 25.1546 10.6667 20 10.6667C14.8454 10.6667 10.6667 14.8454 10.6667 20Z" fill="#F43E37"/>
</g>
<defs>
<clipPath id="clip0_2289_24441">
<rect width="40" height="40" fill="white"/>
</clipPath>
</defs>
</svg>
