<svg width="40" height="42" viewBox="0 0 40 42" fill="none" xmlns="http://www.w3.org/2000/svg">
<path d="M19.5 1.625C8.73569 1.625 0 10.3047 0 21C0 31.6953 8.73569 40.375 19.5 40.375C30.2643 40.375 39 31.6953 39 21C39 10.3047 30.2643 1.625 19.5 1.625Z" fill="#1ED760"/>
<path d="M31.9705 19.0547C31.5617 19.0547 31.31 18.9531 30.9562 18.75C25.3578 15.4297 15.3484 14.6328 8.86932 16.4297C8.58626 16.5078 8.23243 16.6328 7.85501 16.6328C6.8171 16.6328 6.02295 15.8281 6.02295 14.7891C6.02295 13.7266 6.68343 13.125 7.39109 12.9219C10.1588 12.1172 13.2568 11.7344 16.63 11.7344C22.3699 11.7344 28.385 12.9219 32.7804 15.4688C33.3937 15.8203 33.7947 16.3047 33.7947 17.2344C33.7947 18.2969 32.9298 19.0547 31.9705 19.0547ZM29.533 25.0078C29.1242 25.0078 28.849 24.8281 28.5659 24.6797C23.6516 21.7891 16.3234 20.625 9.80501 22.3828C9.42759 22.4844 9.22315 22.5859 8.86932 22.5859C8.02799 22.5859 7.34392 21.9062 7.34392 21.0703C7.34392 20.2344 7.75279 19.6797 8.56267 19.4531C10.7486 18.8438 12.9816 18.3906 16.2526 18.3906C21.3556 18.3906 26.2857 19.6484 30.1699 21.9453C30.8068 22.3203 31.0584 22.8047 31.0584 23.4844C31.0506 24.3281 30.3901 25.0078 29.533 25.0078ZM27.4179 30.1328C27.0877 30.1328 26.8832 30.0312 26.5766 29.8516C21.6701 26.9141 15.9617 26.7891 10.324 27.9375C10.0173 28.0156 9.6163 28.1406 9.38827 28.1406C8.62557 28.1406 8.14593 27.5391 8.14593 26.9063C8.14593 26.1016 8.62557 25.7187 9.21529 25.5937C15.655 24.1797 22.2363 24.3047 27.8504 27.6406C28.33 27.9453 28.6131 28.2188 28.6131 28.9297C28.6131 29.6406 28.0548 30.1328 27.4179 30.1328Z" fill="black"/>
</svg>
