<?xml version="1.0" encoding="UTF-8"?> <svg xmlns="http://www.w3.org/2000/svg" width="537" height="70" fill="none" viewBox="0 0 537 70"><path fill="#333" d="M81.502 45.172c0-2.77 1.65-4.6 4.07-4.6 2.59 0 4.24 1.94 4.24 3.83 0 .94-.18 1.65-.53 2.36 1.41 1 3.59 1.65 6.13 1.65 4.24 0 6.95-1.89 6.95-5.24 0-3.18-3.24-4.71-7.13-6.07-7.19-2.59-12.25-4.89-12.25-12.08 0-6.19 5.01-11.02 12.84-11.02 7.25 0 12.84 3.71 12.84 8.37 0 2.77-1.71 4.36-3.95 4.36-2.71 0-4.24-2-4.24-3.95 0-.94.18-1.35.41-1.83-1.06-.65-2.71-1.18-5.13-1.18-3.83 0-6.07 1.94-6.07 4.77 0 3.18 3.24 4.6 7.13 6.01 6.95 2.47 12.2 4.89 12.2 12.08s-5.71 11.55-13.67 11.55-13.84-4.3-13.84-9.01Zm45.37 2.36h4.83v-27.04h-7.19v6.13h-6.3v-11.9h33.64v11.9h-6.3v-6.13h-7.19v27.04h4.83v5.95h-16.32v-5.95Zm35.59 0h4.42v-26.87h-4.42v-5.95h15.02c8.9 0 15.26 3.83 15.26 11.72 0 5.01-3.06 8.84-7.31 10.55l5.95 10.55h4.42v5.95h-8.96l-7.78-14.73c-.82.06-1.59.12-2.36.12-1.24 0-2.36 0-3.18-.06v8.72h4.83v5.95h-15.91v-5.95h.02Zm23.39-20.86c0-4.06-3.36-6.01-8.72-6.01h-3.59v12.43c.71.06 1.65.12 3.77.12 5.01 0 8.54-2.47 8.54-6.54Zm17.62 20.86h3.36l9.66-26.92h-4.24v-5.89h21.92v5.89h-4.24l9.66 26.92h3.36v5.95h-14.91v-5.89h4.48l-2.18-6.36h-14.49l-2.18 6.36h4.71v5.89h-14.91v-5.95Zm25.03-11.84-5.42-15.26-5.42 15.26h10.84Zm28.17 11.84h4.83v-27.04h-7.19v6.13h-6.3v-11.9h33.64v11.9h-6.3v-6.13h-7.19v27.04h4.83v5.95h-16.32v-5.95Zm34.41 0h4.42v-26.87h-4.42v-5.95h28.93v11.08h-6.36v-5.18h-11.49v10.37h11.72v5.66h-11.72v10.96h11.55v-5.18h6.36v11.08h-28.99v-5.97Zm36.89-13.43c0-11.67 9.07-20.09 20.38-20.09 9.01 0 15.02 4.71 15.02 9.37 0 2.83-1.83 4.77-4.24 4.77-2.65 0-4.48-1.65-4.48-4.18 0-.77.18-1.53.41-2-1.12-.88-3.36-1.77-6.89-1.77-7.54 0-13.31 5.77-13.31 13.84s5.42 13.96 13.61 13.96c4.54 0 8.25-2 11.13-5.13l4.42 4.6c-3.77 4.18-9.37 6.72-15.55 6.72-11.96 0-20.5-8.01-20.5-20.09Zm44.36 13.43h4.42v-26.87h-4.42v-5.95h15.91v5.95h-4.83v10.25h17.91v-10.25h-4.83v-5.95h15.91v5.95h-4.42v26.87h4.42v5.95h-15.91v-5.95h4.83v-10.78h-17.91v10.78h4.83v5.95h-15.91v-5.95Zm51.5 0h4.42v-26.87h-4.42v-5.95h28.93v11.08h-6.36v-5.18h-11.49v10.37h11.72v5.66h-11.72v10.96h11.55v-5.18h6.36v11.08h-28.99v-5.97Zm38.71 0h4.42v-26.87h-4.42v-5.95h15.02c8.9 0 15.26 3.83 15.26 11.72 0 5.01-3.06 8.84-7.31 10.55l5.95 10.55h4.42v5.95h-8.96l-7.78-14.73c-.82.06-1.59.12-2.36.12-1.24 0-2.36 0-3.18-.06v8.72h4.83v5.95h-15.91v-5.95h.02Zm23.39-20.86c0-4.06-3.36-6.01-8.72-6.01h-3.59v12.43c.71.06 1.65.12 3.77.12 5.01 0 8.54-2.47 8.54-6.54Zm24.1 20.86h4.89v-8.84l-11.02-18.03h-3.89v-5.95h14.67v5.95h-3.42l7.13 12.43 7.07-12.43h-3.65v-5.95h14.67v5.95h-3.89l-11.02 18.03v8.84h4.89v5.95h-16.44v-5.95h.01Z"></path><path fill="#FAA634" d="m61.392 12.562-8.07 11.53-.5 13.56c.09.05.19.09.28.16.97.68 1.21 2.03.53 3a2.16 2.16 0 0 1-3 .53 2.16 2.16 0 0 1-.53-3c.24-.35.58-.6.94-.75l.52-14.08 8.63-12.32c-.54-.59-1.1-1.16-1.69-1.72l-9.29 13.27-.75 19.56-24.48 12.86c-.01-.15-.02-.3-.05-.45l1.7-2.42 21.1-11.08.73-19.06 9.72-13.87a35.83 35.83 0 0 0-1.9-1.5l-10.8 15.42c.23.39.35.86.29 1.35a2.164 2.164 0 0 1-2.4 1.88 2.164 2.164 0 0 1-1.88-2.4 2.164 2.164 0 0 1 2.4-1.88c.04 0 .08.02.13.03l10.8-15.42c-.67-.44-1.35-.87-2.04-1.26l-9.72 13.88-17.66 7.2-3.16 23.51-1.77 2.52c-.13.02-.25.06-.38.09l3.68-27.38 18.13-7.39 9.29-13.27c-.72-.36-1.45-.69-2.19-1l-8.63 12.32-13.05 5.34v.14a2.164 2.164 0 0 1-2.4 1.88 2.164 2.164 0 0 1-1.88-2.4 2.164 2.164 0 0 1 2.4-1.88c.49.06.91.28 1.23.6l12.54-5.13 8.08-11.53c-14.33-5.11-30.87-.29-40.02 12.78-10.98 15.68-7.17 37.3 8.51 48.28 15.68 10.98 37.3 7.17 48.28-8.51 9.15-13.07 8.02-30.24-1.67-41.96v-.03Zm-39.59 44.13a2.16 2.16 0 0 1-3 .53 2.16 2.16 0 0 1-.53-3c.51-.73 1.39-1.05 2.21-.87l12.48-17.83c-.8-.95-1.08-2.27-.61-3.51a3.507 3.507 0 1 1 6.55 2.51 3.506 3.506 0 0 1-4.48 2.03l-12.5 17.87c.39.7.38 1.58-.11 2.28l-.01-.01Z"></path></svg> 